<svg id="_x33_0" enable-background="new 0 0 64 64" height="50" viewBox="0 0 64 64" width="50" fill="white" xmlns="http://www.w3.org/2000/svg"><g><path d="m33 25.184v-2.184h-2v2h-2v3c0 1.654 1.346 3 3 3 .552 0 1 .449 1 1v1h-1c-.552 0-1-.449-1-1v-1h-2v1c0 1.302.839 2.402 2 2.816v2.184h2v-2h2v-3c0-1.654-1.346-3-3-3-.552 0-1-.449-1-1v-1h1c.552 0 1 .449 1 1v1h2v-1c0-1.302-.839-2.402-2-2.816z"/><path d="m32 19c-6.065 0-11 4.935-11 11s4.935 11 11 11 11-4.935 11-11-4.935-11-11-11zm0 20c-4.963 0-9-4.037-9-9 0-4.962 4.037-9 9-9s9 4.038 9 9c0 4.963-4.037 9-9 9z"/><path d="m13.019 44.053-1.998-.105c-.014.256-.021.514-.021.773 0 3.748 1.447 7.292 4.074 9.979l1.43-1.398c-2.26-2.312-3.504-5.359-3.504-8.581 0-.224.007-.447.019-.668z"/><path d="m16.021 36.657-1.508-1.314c-1.604 1.84-2.715 4.071-3.211 6.453l1.957.408c.428-2.047 1.382-3.965 2.762-5.547z"/><path d="m61.553 17.658-9.317-4.658h-9.249l2.185-2.892-.277-.555c-1.338-2.676-3.968-4.367-6.928-4.522.014-.344.033-.687.033-1.031v-.618l-.553-.276c-.172-.086-4.282-2.106-10.447-2.106h-1v1c0 .36.014.718.024 1.077-3.048.367-5.666 2.334-6.829 5.242l-.319.798 2.589 3.883h-15.465c-2.757 0-5 2.243-5 5v4c0 2.757 2.243 5 5 5h10.727l-4.922 5.37c-3.099 3.379-4.805 7.766-4.805 12.352 0 10.079 8.199 18.278 18.278 18.278h13.443c10.08 0 18.279-8.2 18.279-18.279 0-4.585-1.706-8.972-4.805-12.351l-4.922-5.37h4.963l9.316-4.658c.893-.446 1.448-1.344 1.448-2.342s-.555-1.896-1.447-2.342zm-30.71 27.283.036.131-1.986 7.446-1.398-4.195-3.476 2.78 2.397-7.193c1.387.559 2.874.912 4.427 1.031zm6.69-1.011 2.447 7.343-3.476-2.78-1.418 4.253-2.164-7.792c1.62-.1 3.17-.45 4.611-1.024zm-5.533-.93c-7.168 0-13-5.832-13-13s5.832-13 13-13 13 5.832 13 13-5.832 13-13 13zm-19-18h-2v-10h2zm2-4h5.028c-.909 1.206-1.639 2.551-2.153 4h-2.875zm28.972 0h7.028v4h-4.875c-.515-1.449-1.244-2.794-2.153-4zm9.028-5.382 4 2v4.764l-4 2zm-2-.618v4h-8.836c-.725-.67-1.514-1.268-2.36-1.786l1.672-2.214zm-8.191-5.082-4.796 6.349c-.929-.408-1.904-.729-2.919-.943 1.412-2.581 2.335-5.401 2.711-8.307 2.061.09 3.917 1.165 5.004 2.901zm-6.819-5.268c-.106 3.528-1.081 6.994-2.835 10.063l-.192.336c-.32-.021-.638-.049-.963-.049-.556 0-1.103.036-1.644.095-1.444-3.886-2.231-7.942-2.343-12.075 3.904.154 6.808 1.158 7.977 1.63zm-9.864.418c.274 3.548 1.024 7.031 2.241 10.396-.805.201-1.587.456-2.335.782l-4.906-7.36c.902-2.081 2.794-3.504 5-3.818zm-1.874 12.113c-.867.526-1.675 1.135-2.415 1.819h-6.837v-4h7.798zm-21.252 4.819v-4c0-1.654 1.346-3 3-3h3v10h-3c-1.654 0-3-1.346-3-3zm52 22.722c0 8.975-7.303 16.278-16.278 16.278h-13.444c-8.975 0-16.278-7.303-16.278-16.279 0-4.083 1.52-7.989 4.279-10.999l3.739-4.079c-.003.12-.018.236-.018.357 0 5.581 3.069 10.449 7.602 13.033l-4.622 13.863 6.524-5.22 2.602 7.805 2.829-10.609 2.978 10.719 2.582-7.746 6.524 5.22-4.668-14.004c4.559-2.576 7.649-7.461 7.649-13.061 0-.121-.015-.237-.018-.357l3.739 4.079c2.759 3.009 4.279 6.916 4.279 11zm5.658-24.169-1.658.829v-2.764l1.658.829c.211.106.342.317.342.553s-.131.447-.342.553z"/></g></svg>