<svg id="Capa_1" enable-background="new 0 0 512 512" height="50" viewBox="0 0 512 512" width="50" fill="white" xmlns="http://www.w3.org/2000/svg"><g id="XMLID_535_"><circle id="XMLID_536_" cx="141" cy="301.02" r="22"/><circle id="XMLID_1232_" cx="221" cy="301.02" r="22"/><path id="XMLID_1290_" d="m502.935 36.693c-44.948-4.218-88.253-15.919-128.71-34.777-2.678-1.249-5.771-1.249-8.449 0-40.457 18.858-83.762 30.559-128.71 34.777-5.138.482-9.065 4.795-9.065 9.956v82.26c0 4.728.172 9.432.496 14.111h-142.497c-47.421 0-86 38.58-86 86v140c0 47.42 38.579 86 86 86h134v46c0 4.044 2.437 7.691 6.173 9.239 1.237.513 2.537.762 3.825.762 2.603 0 5.16-1.017 7.073-2.929l53.071-53.071h65.858c47.421 0 86-38.58 86-86v-87.1c11.64-10.108 22.18-21.603 31.428-34.359 25.234-34.81 38.572-75.839 38.572-118.653v-82.26c0-5.161-3.928-9.474-9.065-9.956zm-80.935 332.327c0 36.393-29.607 66-66 66h-70c-2.652 0-5.195 1.054-7.071 2.929l-38.929 38.929v-31.858c0-5.523-4.478-10-10-10h-144c-36.393 0-66-29.607-66-66v-140c0-36.393 29.607-66 66-66h144.882c5.173 30.347 17.251 59.106 35.69 84.542 8.58 11.836 18.272 22.588 28.924 32.153-9.487 2.443-16.496 11.055-16.496 21.305 0 12.15 9.85 22 22 22s22-9.85 22-22c0-.201-.01-.4-.015-.6 13.631 8.538 28.325 15.46 43.878 20.599 1.019.336 2.077.505 3.137.505s2.118-.168 3.137-.505c17.468-5.771 33.854-13.789 48.863-23.822zm70-240.111c0 77.713-48.888 146.436-122 172.051-73.112-25.616-122-94.338-122-172.051v-73.253c42.441-4.912 83.419-16.22 122-33.672 38.581 17.452 79.559 28.76 122 33.672z"/><path id="XMLID_1489_" d="m326.786 111.812v11.071h-1.072c-9.783 0-17.714 7.931-17.714 17.714v70.857c0 9.783 7.931 17.714 17.714 17.714h88.571c9.783 0 17.714-7.931 17.714-17.714v-70.857c0-9.783-7.931-17.714-17.714-17.714h-1.072v-11.071c0-23.829-19.386-43.214-43.214-43.214s-43.213 19.386-43.213 43.214zm54.341 68.084v19.86h-22v-19.86c-3.073-2.916-5-7.028-5-11.599 0-8.837 7.164-16 16-16s16 7.163 16 16c0 4.571-1.927 8.683-5 11.599zm12.087-68.084v11.071h-46.428v-11.071c0-12.8 10.414-23.214 23.214-23.214s23.214 10.414 23.214 23.214z"/></g></svg>