<svg id="Capa_1" enable-background="new 0 0 510 510" height="50" viewBox="0 0 510 510" width="50" fill="white" xmlns="http://www.w3.org/2000/svg"><g><g><path d="m135.864 249.767c4.143 0 7.5-3.357 7.5-7.5v-20.296c0-4.143-3.357-7.5-7.5-7.5s-7.5 3.357-7.5 7.5v20.296c0 4.142 3.358 7.5 7.5 7.5z"/><path d="m118.041 261.148c-2.396 3.378-1.601 8.06 1.777 10.457 3.378 2.396 9.234 4.968 15.972 4.968 4.826 0 10.104-1.319 15.247-4.968 3.378-2.397 4.174-7.079 1.777-10.457s-7.076-4.172-10.457-1.777c-6.532 4.636-13.131.487-13.917-.04-3.375-2.348-8.015-1.541-10.399 1.817z"/><path d="m453.503 317.142c-2.104-14.245-14.408-25.214-29.228-25.214h-7.904c15.948-11.069 26.418-29.5 26.418-50.338v-23.636h4.168c7.616 0 14.29-4.313 17.418-11.258 3.128-6.943 1.936-14.8-3.11-20.504l-29.319-33.136c-2.746-3.104-7.485-3.394-10.587-.647-3.103 2.745-3.392 7.485-.647 10.587l29.319 33.136c2.265 3.156.796 6.427-3.073 6.822h-149.61c-2.394 0-3.414-1.691-3.741-2.418-.328-.728-.918-2.611.668-4.404l74.806-84.543c2.341-1.963 3.804-1.964 6.146 0l22.285 25.186c2.744 3.103 7.484 3.39 10.587.647 3.103-2.745 3.392-7.485.647-10.587l-22.285-25.186c-7.195-8.513-21.42-8.512-28.614 0l-74.806 84.543c-5.046 5.704-6.238 13.561-3.11 20.504 3.128 6.944 9.802 11.258 17.418 11.258h7.692v23.636c0 26.538 16.972 49.18 40.63 57.667v17.503l-45.061-.002c-19.361 0-36.328 10.418-45.609 25.938-9.281-15.52-26.249-25.938-45.609-25.938-.038.002-45.061.002-45.061.002v-17.501c23.657-8.489 40.627-31.131 40.627-57.67l.003-80.449c0-23.551-19.164-42.71-42.72-42.71h-79.271c-17.556-.308-33.094 14.826-33.089 32.409-.855 14.39 9.258 25.313 20.439 32.839.891.643 22.031 15.707 45.318 14.775 24.427-.989 36.18-13.531 41.126-21.236l33.192 6.545v57.827c0 25.505-20.753 46.255-46.262 46.255h-15.231c-25.505 0-46.255-20.75-46.255-46.255v-25.947c0-4.143-3.357-7.5-7.5-7.5s-7.5 3.357-7.5 7.5v25.947c0 26.539 16.968 49.181 40.621 57.67v17.501c-7.157-.001-37.351.003-45.053-.002-29.284 0-53.109 23.824-53.109 53.108v120.947c0 10.579 8.607 19.187 19.188 19.187h452.289c10.58 0 19.188-8.607 19.188-19.187v-120.947c0-27.158-20.496-49.606-46.829-52.724zm-299.291-155.717c-3.646-.715-7.281 1.349-8.522 4.859-.058.162-6 16.183-30.658 17.181-17.38.721-34.596-11.019-35.869-11.906-6.673-4.886-15.07-11.085-14.285-20.409-.002-9.622 8.496-17.888 18.093-17.721h79.271c15.285 0 27.72 12.431 27.72 27.71v7.333zm331.12 208.441v89.164h-31.509l.001-126.7c17.878 3.135 31.508 18.775 31.508 37.536zm-46.508-48.389-.004 94.487h-36.449c-.115 0-.209-.094-.209-.209v-108.827h22.113c8.023 0 14.549 6.526 14.549 14.549zm-118.784-79.887v-23.636h107.75v23.636c0 25.502-20.752 46.25-46.26 46.25h-15.23c-25.508 0-46.26-20.748-46.26-46.25zm67.12 60.981v28.589c0 7.306-5.944 13.25-13.25 13.25-7.301 0-13.24-5.944-13.24-13.25v-28.589c1.855.17 22.552.468 26.49 0zm-93.151 29.759v126.7h-31.509v-43.295-45.869c0-18.762 13.631-34.401 31.509-37.536zm-46.509 37.536v38.369h-31.509v-75.905c17.878 3.135 31.509 18.774 31.509 37.536zm-138.378-38.106h2.987l16.474 17.356v31.957zm34.461 17.349 16.468-17.35h2.985l-19.453 49.292zm-15.119-46.265c4.171-.063 16.925.199 20.866-.27v18.692l-13.25 13.959-13.25-13.959v-18.692c1.857.17 3.734.27 5.634.27zm-72.294 29.487v75.904h-31.502v-38.369c0-18.759 13.627-34.397 31.502-37.535zm-31.502 158.482v-67.578h31.502v71.765h-27.315c-2.308 0-4.187-1.878-4.187-4.187zm176.322 4.187h-129.813v-163.24h21.82l36.107 91.493c2.222 6.208 11.737 6.215 13.953 0l36.106-91.493h21.827zm15.001-71.765h31.509v71.765h-31.509zm78.018 71.765h-31.509v-20.97h31.509zm90.113 0-19.788-45.393c-1.654-3.796-6.072-5.535-9.872-3.878-3.797 1.655-5.533 6.075-3.878 9.872l17.175 39.399h-58.749v-134.767l26.972 61.872c1.656 3.836 6.167 5.521 9.872 3.878 3.797-1.655 5.533-6.075 3.878-9.872l-36.771-84.351h32.724c.321 15.3 12.855 27.65 28.225 27.65 4.787 0 9.297-1.201 13.252-3.311v59.655c0 8.387 6.822 15.209 15.209 15.209h36.449v64.037zm101.21-4.187c0 2.309-1.879 4.187-4.188 4.187h-27.321v-20.97h31.509z"/><path d="m373.696 246.779c4.143 0 7.5-3.357 7.5-7.5v-5.309c0-4.143-3.357-7.5-7.5-7.5s-7.5 3.357-7.5 7.5v5.309c0 4.143 3.358 7.5 7.5 7.5z"/><path d="m396.773 265.38c3.378-2.397 4.174-7.079 1.777-10.457s-7.076-4.174-10.457-1.777c-14.433 10.239-29.026.443-29.704-.023-3.378-2.37-8.033-1.564-10.423 1.801-2.396 3.378-1.601 8.06 1.777 10.457.634.449 10.781 7.484 24.289 7.484 6.969-.001 14.831-1.873 22.741-7.485z"/><path d="m239.468 98.921c4.095 2.679 7.328 3.991 10.884 4.597v.862c0 4.143 3.357 7.5 7.5 7.5s7.5-3.357 7.5-7.5v-1.691c8.192-2.894 13.436-10.242 14.659-17.516 1.713-10.191-3.804-19.396-13.729-22.903-4.889-1.728-10.277-3.801-13.183-6.079-.25-.196-.609-1.134-.351-2.509.124-.654.69-2.839 2.812-3.478 4.941-1.486 8.082.964 8.425 1.249l2.81 1.335s7.067 3.173 9.519-3.317c1.961-5.191-2.287-9.158-2.287-9.158-1.72-1.586-4.746-3.506-8.676-4.629v-.758c0-4.143-3.357-7.5-7.5-7.5s-7.5 3.357-7.5 7.5v1.217c-6.344 2.265-11.038 7.836-12.343 14.761-1.268 6.726.969 13.273 5.834 17.09 4.601 3.608 11.102 6.179 17.44 8.419 3.893 1.376 4.288 4.171 3.935 6.274-.507 3.015-3.043 6.271-7.417 6.301-5.122.032-6.355-.155-10.122-2.619-3.467-2.27-8.115-1.296-10.382 2.171-2.267 3.466-1.295 8.114 2.172 10.381z"/><path d="m258.143 139.305c38.406 0 69.652-31.246 69.652-69.652s-31.246-69.653-69.652-69.653-69.653 31.246-69.653 69.652 31.246 69.653 69.653 69.653zm0-124.305c30.136 0 54.652 24.517 54.652 54.652s-24.517 54.652-54.652 54.652-54.653-24.516-54.653-54.652 24.517-54.652 54.653-54.652z"/></g></g></svg>