<svg width="80" height="70" fill="none" xmlns="http://www.w3.org/2000/svg"><path d="M32 45.938h-.003c0-2.213.168-1.194-10.63-24.816-2.207-4.825-8.525-4.835-10.735 0C-.258 44.946.002 43.795.002 45.938H0c0 6.04 7.164 10.937 16 10.937s16-4.897 16-10.938zM16 24.061l9 19.688H7l9-19.688zm63.998 21.875c0-2.212.167-1.193-10.632-24.815-2.206-4.825-8.523-4.835-10.733 0-10.89 23.824-10.63 22.673-10.63 24.816H48c0 6.04 7.164 10.937 16 10.937s16-4.897 16-10.938h-.002zM55 43.75l9-19.688 9 19.688H55zm11 17.5H44V20.952c2.939-1.407 5.145-4.304 5.799-7.827H66c1.105 0 2-.979 2-2.188V6.564c0-1.21-.895-2.188-2-2.188H47.955C46.13 1.734 43.261 0 40 0s-6.13 1.734-7.955 4.375H14c-1.105 0-2 .979-2 2.188v4.375c0 1.208.895 2.187 2 2.187h16.201c.654 3.522 2.859 6.42 5.799 7.827V61.25H14c-1.105 0-2 .979-2 2.188v4.374c0 1.21.895 2.188 2 2.188h52c1.105 0 2-.979 2-2.188v-4.374c0-1.21-.895-2.188-2-2.188z" fill="#9979C1"/></svg>