<svg width="80" height="70" viewBox="0 0 80 70" fill="none" xmlns="http://www.w3.org/2000/svg">
<path d="M32 45.9375H31.9975C31.9975 43.7254 32.165 44.7439 21.3662 21.1217C19.16 16.2969 12.8425 16.2873 10.6325 21.1217C-0.257501 44.9463 0.0025 43.7951 0.0025 45.9375H0C0 51.9777 7.16375 56.875 16 56.875C24.8363 56.875 32 51.9777 32 45.9375ZM16 24.0625L25 43.75H7L16 24.0625ZM79.9975 45.9375C79.9975 43.7254 80.165 44.7439 69.3662 21.1217C67.16 16.2969 60.8425 16.2873 58.6325 21.1217C47.7425 44.9463 48.0025 43.7951 48.0025 45.9375H48C48 51.9777 55.1637 56.875 64 56.875C72.8363 56.875 80 51.9777 80 45.9375H79.9975ZM55 43.75L64 24.0625L73 43.75H55ZM66 61.25H44V20.9521C46.9388 19.5453 49.145 16.6482 49.7988 13.125H66C67.105 13.125 68 12.1461 68 10.9375V6.5625C68 5.35391 67.105 4.375 66 4.375H47.955C46.13 1.73359 43.2613 0 40 0C36.7387 0 33.87 1.73359 32.045 4.375H14C12.895 4.375 12 5.35391 12 6.5625V10.9375C12 12.1461 12.895 13.125 14 13.125H30.2013C30.855 16.6469 33.06 19.5453 36 20.9521V61.25H14C12.895 61.25 12 62.2289 12 63.4375V67.8125C12 69.0211 12.895 70 14 70H66C67.105 70 68 69.0211 68 67.8125V63.4375C68 62.2289 67.105 61.25 66 61.25Z" fill="#9979C1"/>
</svg>
